<?xml version="1.0" encoding="utf-8"?>
<!-- Generator: Adobe Illustrator 22.0.0, SVG Export Plug-In . SVG Version: 6.00 Build 0)  -->
<svg version="1.1" id="Calque_1" xmlns="http://www.w3.org/2000/svg" xmlns:xlink="http://www.w3.org/1999/xlink" x="0px" y="0px"
	 viewBox="0 0 512 96" style="enable-background:new 0 0 512 96;" xml:space="preserve">
<style type="text/css">
	.st0{fill:#EC008C;}
	.st1{fill:#FFFFFF;}
</style>
<title>Brand / 01 Logotypes / VP Voyage</title>
<desc>Created with Sketch.</desc>
<g id="Brand-_x2F_-01-Logotypes-_x2F_-VP-Voyage">
	<g id="Brand-_x2F_-01-Logotypes-_x2F_-Icons-_x2F_-Butterfly" transform="translate(434.000000, 0.000000)">
		<g id="Mask">
			<path id="path-1_1_" class="st1" d="M47.7,40.4c-0.4-4.7-1.5-9-3.3-12.9c2.9-6,5.9-8.3,5.9-8.3s6.2,15.6,0.8,31.7
				C47.1,63.1,42.8,68.3,41,70.1C48.1,60,48.4,48.1,47.7,40.4 M56.4,57.4c-0.8-0.1-2.6,0.5-3.8,1.9c-2.9,3.4-5.1,6.1-8.6,8.5
				c9.7-10.1,21.3-34.1,7.1-58.1c0,0-5.5,3.8-10,11.5c-4.5-6.8-11-12.5-19-17.5c0,0-20.4,22.5-11.4,55.1
				C-16.6,62.6-4.9,84.2-1.2,85.5c0,0-7.6-9.2,2.4-18.1c4.5-4,14-5,14-5c-2.2-15.6-2-29.8,8.8-45.4c1.4,0.9,17.2,7.8,17.8,30.9
				c1.3,14.5-6.3,26.1-13.7,30.7C15.4,85.3,1.3,88.7-14.1,92.2C15.2,92.1,44,77.9,55.4,64.5C59.2,60.1,57.5,57.6,56.4,57.4"/>
		</g>
	</g>
	<g id="Brand-_x2F_-01-Logotypes-_x2F_-Fonts-_x2F_-Le-Voyage" transform="translate(227.000000, 63.000000)">
		<g id="Le-Voyage">
			<path id="path-3_1_" class="st1" d="M2.3,0.6c0-1.4,1-1.8,2.6-1.8h1.3v12.4c0,5.9,0.6,6.8,7.5,6.8c1.2,0,2.9-0.1,4.2-0.2
				c0.1,0.3,0.1,0.5,0.1,0.8c0,1.9-1.5,2.9-5.1,2.9c-9.1,0-10.6-2.5-10.6-9.7L2.3,0.6z M30.9,1.9c5.3,0,8.3,2.3,8.3,5.8
				c0,4.9-4.5,5.8-8.1,5.8c-3.4,0-3.9-0.7-3.9-2.1c0-0.3,0-0.5,0-0.8c0.7,0.1,1.3,0.1,2,0.1c4.2,0,6.2-0.6,6.2-2.8
				c0-1.6-1.4-2.7-4.6-2.7c-4.4,0-7,2.3-7,6.9c0,5,2.8,6.6,7.5,6.6c3,0,6-0.5,7.6-2.2c0.3,0.7,0.5,1.5,0.5,2.3
				c0,1.9-3.6,3.2-8.6,3.2c-7.9,0-11-3.6-11-9.8C19.8,5.3,24,1.9,30.9,1.9z M52.3,4.3c0-0.8,0.7-1.6,3-2.4c1.2,3.3,1.9,4.9,3.5,8.4
				c1.4,3.2,3.4,7.4,4.1,7.4s2.5-4.2,4-7.6c1.4-3.3,2.2-5,3.5-8.1c1.5,0.9,2.3,1.5,2.3,2.3c0,1.3-2.5,6.5-3.4,8.4
				c-3.8,7.8-4.6,9.4-6.7,9.4c-2.4,0-3.2-1.7-6.7-9C55.2,11.6,52.3,5.5,52.3,4.3z M106.8,16.3c3.1-4.4,5.5-9.3,7.1-14.5
				c1.7,0.6,3,1.9,3,3.2c0,3.2-13.8,24.2-16.7,24.2c-1.3,0-1.9-0.8-2.6-1.9c2.5-2.5,4.8-5.1,7-7.9c-1.5-2.1-2.8-4.3-4-6.7
				c-3.1-5.9-5.2-8.5-11.6-8.5c-7,0-9.9,4.1-9.9,7.9c0,3.4,2.2,6.6,6.2,6.6c1.6,0.1,3.2-0.6,4.3-1.7c1.1-1.1,1.8-2.7,1.7-4.3
				c0-2.3-1.2-4.4-3.3-5.5c0.6-0.5,1.4-0.8,2.2-0.8c3,0,5,3.1,5,6.6c0,4.1-2.8,8.8-10,8.8c-6.6,0-10.1-4.6-10.1-9.4
				c0-5.5,3.4-11.4,13.8-11.4c7.7,0,10.7,2.7,13.1,7.1C103.8,11.4,105.5,14.9,106.8,16.3z M123,13.2c0,2.3,0.9,5.3,3.7,5.3
				c4.9,0,8.1-9.8,10.6-9.8c1.2,0,3.5,5.8,6.2,12.1c-0.6,0.6-1.4,1-2.3,1.2c-0.9,0-1.3-0.5-1.8-1.7c-0.8-1.7-1.3-3.1-2.1-4.9
				c-0.3-0.8-0.6-1.3-0.8-1.3c-0.9,0-3.8,7.9-10.5,7.9c-4.7,0-7-3.6-7-8.9c0-6.2,4-11.2,12.4-11.2c2.4,0,7.9,0.6,7.9,3.3
				c0,0.9-0.4,1.7-1.1,2.2C136.2,5.8,133.6,5,131,5C125.7,5,123,8.7,123,13.2z M155.7,29.2c-4.4,0-6-0.7-6.8-1.4
				c-0.4-0.3-0.4-1.2-0.4-1.5c0-0.5,0.1-1.1,0.2-1.6c2.2,0.9,4.5,1.4,6.8,1.3c3.1,0,6.9-1,6.9-6.3c0-1.3-0.2-2.6-0.5-3.9
				c-1.6,2.7-4.5,6.2-9.1,6.2c-4.6,0-7-3.6-7-8.9c0-6.2,4.4-11.2,12.3-11.2c3.2,0,7.2,1.9,7.2,4.3c-0.1,0.9-0.6,1.6-1.4,2.1
				c-1.7-1.5-3.6-3-6.7-3c-4.3,0-7.4,3.5-7.4,7.9c0,2.3,0.9,5.3,3.7,5.3c4.5,0,7.8-7.4,9.7-7.4c0.5,0,1.1,0.9,1.6,2.8
				c0.5,1.8,0.8,3.7,0.7,5.7C165.4,26.7,160.7,29.2,155.7,29.2z M179.8,1.9c5.3,0,8.3,2.3,8.3,5.8c0,4.9-4.5,5.8-8.1,5.8
				c-3.4,0-3.9-0.7-3.9-2.1c0-0.3,0-0.5,0-0.8c0.7,0.1,1.3,0.1,2,0.1c4.2,0,6.2-0.6,6.2-2.8c0-1.6-1.4-2.7-4.6-2.7
				c-4.4,0-7,2.3-7,6.9c0,5,2.8,6.6,7.5,6.6c3,0,6-0.5,7.6-2.2c0.3,0.7,0.5,1.5,0.5,2.3c0,1.9-3.6,3.2-8.6,3.2c-7.9,0-11-3.6-11-9.8
				C168.7,5.3,172.9,1.9,179.8,1.9z"/>
		</g>
	</g>
	<g id="Brand-_x2F_-01-Logotypes-_x2F_-Fonts-_x2F_-Vente-Privee">
		<g id="Vente-Privee">
			<path id="path-5_1_" class="st1" d="M143.9,33.6c0,7.2,3.1,7.5,8.7,7.5h8.2v5.8h-10.1c-9.5,0-13.5-3.7-13.5-12.4V4.3h6.7v11.6
				h12.6v5.8h-12.6V33.6z M113.4,16.4L113.4,16.4c6.5,0,17.3,0,17.3,14.4V47H124V31.7c0-7.5-2.2-9.5-10.6-9.5
				c-8.4,0-10.7,2-10.7,9.5V47h-6.4V30.8C96.3,16.4,106.6,16.4,113.4,16.4z M50,16.4h7.4L41.9,47h-6l-0.1-0.2L20.2,16.4h7.4l0.1,0.2
				L38.9,39L50,16.4z M415.3,31.7v2h-26.5c0.3,5.5,2,7.5,9.7,7.5h15.3V47h-15.3c-4.9,0-16.5,0-16.5-15.3s11.5-15.3,16.5-15.3
				C404,16.4,415.3,16.4,415.3,31.7z M389.2,27.9h19.1c-0.4-3.7-2.2-5.7-9.7-5.7C391.4,22.2,389.8,24,389.2,27.9z M324.3,39
				l11.2-22.7h7.4L327.3,47h-6l-0.1-0.2l-15.5-30.4h7.5l0.1,0.2L324.3,39z M240.3,16.4L240.3,16.4c9.1,0,17.4,1.2,17.4,15.3
				S249.5,47,240.3,47c-3.5,0-7.5-0.1-10.7-1.6v11h-6.7V31.7C222.9,17.6,231.2,16.4,240.3,16.4z M240.3,41.2
				c10.2,0,10.7-2.1,10.7-9.5s-0.5-9.5-10.7-9.5s-10.7,2.1-10.7,9.5C229.6,39.2,230,41.2,240.3,41.2z M263.6,30.8L263.6,30.8
				c0-14.4,8.9-14.4,18.3-14.4h6.2v5.8h-7.1c-10.2,0-10.7,2.4-10.7,9.5V47h-6.7V30.8z M360.5,16.4c5.4,0,16.8,0,16.8,15.3v2h-26.5
				c0.3,5.5,2,7.5,9.7,7.5h15.3V47h-15.3c-4.9,0-16.5,0-16.5-15.3S355.6,16.4,360.5,16.4z M351.1,27.9h19.1
				c-0.4-3.7-2.2-5.7-9.7-5.7C353.4,22.2,351.7,24,351.1,27.9z M180,16.4L180,16.4c5.5,0,16.8,0,16.8,15.3v2h-26.5
				c0.3,5.5,2,7.5,9.7,7.5h15.3V47H180c-4.9,0-16.5,0-16.5-15.3S175,16.4,180,16.4z M170.6,27.9h19.1c-0.4-3.7-2.2-5.7-9.7-5.7
				C172.9,22.2,171.2,24,170.6,27.9z M73.9,16.4L73.9,16.4c5.5,0,16.8,0,16.8,15.3v2H64.2c0.3,5.5,2,7.5,9.7,7.5h15.3V47H73.9
				c-4.9,0-16.5,0-16.5-15.3S69,16.4,73.9,16.4z M64.6,27.9h19.1c-0.4-3.7-2.2-5.7-9.7-5.7C66.8,22.2,65.2,24,64.6,27.9z M297.3,4.3
				c2,0,3.6,1.6,3.6,3.6s-1.6,3.6-3.6,3.6c-2,0-3.6-1.6-3.6-3.6S295.3,4.3,297.3,4.3z M293.9,16.4h6.7V47h-6.7V16.4z"/>
		</g>
	</g>
</g>
</svg>
